<svg width="25" height="24" viewBox="0 0 25 24" fill="none" xmlns="http://www.w3.org/2000/svg">
<path d="M17.4964 12.3606C17.5061 11.6139 17.7063 10.8817 18.0785 10.2321C18.4506 9.58262 18.9825 9.0369 19.6247 8.64576C19.2167 8.06853 18.6785 7.59349 18.0528 7.25838C17.4271 6.92326 16.7311 6.7373 16.0202 6.71527C14.5036 6.55756 13.0334 7.6143 12.2606 7.6143C11.4729 7.6143 10.283 6.73092 9.00174 6.75704C8.17298 6.78356 7.36529 7.02232 6.65736 7.45004C5.94943 7.87777 5.36541 8.47987 4.9622 9.19769C3.21563 12.1935 4.51842 16.5965 6.19152 19.0181C7.02861 20.2039 8.00693 21.5285 9.28705 21.4815C10.5397 21.43 11.0076 20.6902 12.5196 20.6902C14.0177 20.6902 14.4566 21.4815 15.7627 21.4517C17.1069 21.43 17.9538 20.2606 18.7615 19.0635C19.363 18.2186 19.8258 17.2848 20.1328 16.2966C19.3519 15.9694 18.6855 15.4217 18.2166 14.7218C17.7478 14.0218 17.4973 13.2007 17.4964 12.3606Z" fill="#1D1D1F"/>
<path d="M15.0296 5.1231C15.7625 4.25147 16.1236 3.13112 16.0362 2C14.9165 2.11651 13.8822 2.64668 13.1394 3.48487C12.7762 3.89435 12.4981 4.37072 12.3208 4.88676C12.1436 5.40281 12.0708 5.94839 12.1065 6.49234C12.6665 6.49805 13.2206 6.37779 13.7269 6.14061C14.2333 5.90344 14.6787 5.55553 15.0296 5.1231Z" fill="#1D1D1F"/>
</svg>
