<svg width="25" height="24" viewBox="0 0 25 24" fill="none" xmlns="http://www.w3.org/2000/svg">
<path fill-rule="evenodd" clip-rule="evenodd" d="M5.84885 5.57551C5.61411 5.80941 5.61412 6.18864 5.84885 6.42253L11.8487 12.4012C12.0835 12.6351 12.4641 12.6351 12.6988 12.4012C12.9335 12.1673 12.9335 11.788 12.6988 11.5541L6.69888 5.57551C6.46415 5.34162 6.08358 5.34162 5.84885 5.57551Z" fill="#1D1D1F"/>
<path fill-rule="evenodd" clip-rule="evenodd" d="M5.84842 18.4232C6.08315 18.6571 6.46372 18.6571 6.69846 18.4232L12.6984 12.4445C12.9331 12.2106 12.9331 11.8314 12.6984 11.5975C12.4636 11.3636 12.0831 11.3636 11.8483 11.5975L5.84842 17.5761C5.61369 17.81 5.61369 18.1893 5.84842 18.4232Z" fill="#1D1D1F"/>
<path fill-rule="evenodd" clip-rule="evenodd" d="M11.8488 5.57649C11.6141 5.81039 11.6141 6.18961 11.8488 6.42351L17.8487 12.4021C18.0835 12.636 18.4641 12.636 18.6988 12.4021C18.9335 12.1682 18.9335 11.789 18.6988 11.5551L12.6989 5.57649C12.4641 5.34259 12.0836 5.34259 11.8488 5.57649Z" fill="#1D1D1F"/>
<path fill-rule="evenodd" clip-rule="evenodd" d="M11.8504 18.4232C12.0851 18.6571 12.4657 18.6571 12.7004 18.4232L18.7003 12.4445C18.935 12.2106 18.935 11.8314 18.7003 11.5975C18.4656 11.3636 18.085 11.3636 17.8503 11.5975L11.8504 17.5761C11.6156 17.81 11.6156 18.1893 11.8504 18.4232Z" fill="#1D1D1F"/>
</svg>
