<svg width="25" height="24" viewBox="0 0 25 24" fill="none" xmlns="http://www.w3.org/2000/svg">
<path fill-rule="evenodd" clip-rule="evenodd" d="M12.9949 18.4245C13.2296 18.1906 13.2296 17.8114 12.9949 17.5775L6.995 11.5988C6.76027 11.3649 6.3797 11.3649 6.14497 11.5988C5.91024 11.8327 5.91024 12.212 6.14497 12.4459L12.1449 18.4245C12.3796 18.6584 12.7602 18.6584 12.9949 18.4245Z" fill="#1D1D1F"/>
<path fill-rule="evenodd" clip-rule="evenodd" d="M12.9953 5.57683C12.7606 5.34293 12.38 5.34293 12.1453 5.57683L6.14539 11.5555C5.91066 11.7894 5.91066 12.1686 6.14539 12.4025C6.38012 12.6364 6.76069 12.6364 6.99542 12.4025L12.9953 6.42385C13.2301 6.18995 13.2301 5.81073 12.9953 5.57683Z" fill="#1D1D1F"/>
<path fill-rule="evenodd" clip-rule="evenodd" d="M18.9949 18.4245C19.2296 18.1906 19.2296 17.8114 18.9949 17.5775L12.995 11.5988C12.7603 11.3649 12.3797 11.3649 12.145 11.5988C11.9102 11.8327 11.9102 12.212 12.145 12.4459L18.1449 18.4245C18.3796 18.6584 18.7602 18.6584 18.9949 18.4245Z" fill="#1D1D1F"/>
<path fill-rule="evenodd" clip-rule="evenodd" d="M18.9934 5.57683C18.7586 5.34293 18.3781 5.34293 18.1433 5.57683L12.1434 11.5555C11.9087 11.7894 11.9087 12.1686 12.1434 12.4025C12.3782 12.6364 12.7587 12.6364 12.9935 12.4025L18.9934 6.42385C19.2281 6.18995 19.2281 5.81073 18.9934 5.57683Z" fill="#1D1D1F"/>
</svg>
