<svg width="25" height="24" viewBox="0 0 25 24" fill="none" xmlns="http://www.w3.org/2000/svg">
<path d="M18.4509 17.16H6.21094C5.80594 17.16 5.43094 16.995 5.14594 16.71C4.86094 16.425 4.71094 16.05 4.71094 15.645C4.71094 15.375 4.78594 15.12 4.92094 14.895C5.35594 14.13 5.89594 12.675 5.89594 10.08V9.465C5.89594 5.91 8.77594 3 12.3459 3C15.9159 3.03 18.7959 5.955 18.7959 9.525V10.08C18.7959 12.675 19.3209 14.13 19.7709 14.895C19.9659 15.24 20.0259 15.645 19.9209 16.035C19.8159 16.425 19.5759 16.755 19.2309 16.95C19.0059 17.085 18.7359 17.16 18.4659 17.16H18.4509Z" stroke="#1D1D1F" stroke-width="1.5"/>
<path d="M9.3418 19C9.3418 20.659 10.7029 22 12.3557 22H12.3279C13.9946 22 15.3418 20.6452 15.3418 19" stroke="#1D1D1F" stroke-width="1.5"/>
<circle cx="21.5125" cy="2.2" r="2.2" fill="#DC063A"/>
</svg>
