<svg width="24" height="24" viewBox="0 0 24 24" fill="none" xmlns="http://www.w3.org/2000/svg">
<g clip-path="url(#clip0_4171_41567)">
<path fill-rule="evenodd" clip-rule="evenodd" d="M6.85634 4.96667H5.00078C4.0619 4.96667 3.30078 5.72778 3.30078 6.66667V19.7778C3.30078 20.7167 4.0619 21.4778 5.00078 21.4778H19.0008C19.9397 21.4778 20.7008 20.7167 20.7008 19.7778V6.66667C20.7008 5.72778 19.9397 4.96667 19.0008 4.96667H17.1452V3H15.7452V4.96667H8.25634V3H6.85634V4.96667ZM5.00078 6.36667C4.8351 6.36667 4.70078 6.50098 4.70078 6.66667V9.36667H19.3008V6.66667C19.3008 6.50098 19.1665 6.36667 19.0008 6.36667H5.00078ZM19.3008 10.7667H4.70078V19.7778C4.70078 19.9435 4.8351 20.0778 5.00078 20.0778H19.0008C19.1665 20.0778 19.3008 19.9435 19.3008 19.7778V10.7667ZM16.4958 12.8283L11.1119 18.2122L7.95025 15.0505L8.9402 14.0606L11.1119 16.2323L15.5058 11.8384L16.4958 12.8283Z" fill="#1D1D1F"/>
</g>
<defs>
<clipPath id="clip0_4171_41567">
<rect width="24" height="24" fill="white"/>
</clipPath>
</defs>
</svg>
