<svg width="24" height="24" viewBox="0 0 24 24" fill="none" xmlns="http://www.w3.org/2000/svg">
<g clip-path="url(#clip0_1047_14349)">
<path d="M22 12C22 17.5228 17.5228 22 12 22C6.47715 22 2 17.5228 2 12C2 6.47715 6.47715 2 12 2C17.5228 2 22 6.47715 22 12Z" fill="#D8D8D9"/>
<path d="M15.1492 8.00735L8.00637 15.1502C7.77392 15.3827 7.77392 15.7595 8.00637 15.992C8.23883 16.2245 8.61571 16.2245 8.84817 15.992L15.991 8.84914C16.2235 8.61669 16.2235 8.2398 15.991 8.00735C15.7586 7.77489 15.3817 7.77489 15.1492 8.00735Z" fill="#9D9DA0"/>
<path d="M8.00637 8.84914L15.1492 15.992C15.3817 16.2245 15.7586 16.2245 15.991 15.992C16.2235 15.7595 16.2235 15.3827 15.991 15.1502L8.84817 8.00735C8.61571 7.77489 8.23883 7.77489 8.00637 8.00735C7.77392 8.2398 7.77392 8.61669 8.00637 8.84914Z" fill="#9D9DA0"/>
</g>
<defs>
<clipPath id="clip0_1047_14349">
<rect width="24" height="24" fill="white"/>
</clipPath>
</defs>
</svg>
