<svg width="25" height="24" viewBox="0 0 25 24" fill="none" xmlns="http://www.w3.org/2000/svg">
<g clip-path="url(#clip0_2022_76885)">
<path d="M12.1328 2C6.05698 2 1.13281 5.89239 1.13281 10.6967C1.13281 13.8224 3.22001 16.5631 6.3508 18.0964C6.12115 18.9543 5.51829 21.2086 5.39671 21.6899C5.2481 22.2877 5.61454 22.2809 5.85771 22.1205C6.04684 21.9939 8.87199 20.0722 10.0912 19.243C10.7532 19.341 11.4354 19.3933 12.1328 19.3933C18.2086 19.3933 23.1328 15.5009 23.1328 10.6967C23.1328 5.89239 18.2086 2 12.1328 2Z" fill="#371D1E"/>
<path d="M4.45946 9.09585H5.59087C5.59087 9.09585 5.59763 12.2064 5.59087 12.9308C5.59087 13.4594 6.76957 13.4661 6.76788 12.9393L6.77294 9.13806C6.77294 9.13806 7.15289 9.14144 7.89929 9.14144C8.60346 9.14144 8.60346 8.03536 7.89929 8.03367C7.10561 8.03367 4.45609 8.01172 4.45609 8.01172C3.79244 8.01172 3.79413 9.09753 4.45609 9.09753" fill="#FAE100"/>
<mask id="mask0_2022_76885" style="mask-type:luminance" maskUnits="userSpaceOnUse" x="3" y="8" width="6" height="6">
<path d="M4.45946 9.09585H5.59087C5.59087 9.09585 5.59763 12.2064 5.59087 12.9308C5.59087 13.4594 6.76957 13.4661 6.76788 12.9393L6.77294 9.13806C6.77294 9.13806 7.15289 9.14144 7.89929 9.14144C8.60346 9.14144 8.60346 8.03536 7.89929 8.03367C7.10561 8.03367 4.45609 8.01172 4.45609 8.01172C3.79244 8.01172 3.79413 9.09753 4.45609 9.09753" fill="white"/>
</mask>
<g mask="url(#mask0_2022_76885)">
<path d="M8.60399 8.00977H3.79297V13.4659H8.60399V8.00977Z" fill="#FAE100"/>
</g>
<path d="M9.87893 9.29704L10.5088 11.2711H9.19501L9.87893 9.29704ZM9.17306 8.37165C8.89443 8.98464 7.88798 11.8824 7.55363 12.6507C7.31215 13.2063 8.35406 13.6589 8.59554 13.1033L8.82182 12.3113H10.8938C10.8938 12.3113 10.8229 12.3434 11.0981 13.0695C11.3211 13.6572 12.3967 13.2502 12.1738 12.6626C11.8564 11.8233 10.7553 8.79888 10.5544 8.37165C10.4615 8.17407 10.1305 8.03223 9.80969 8.03223C9.54288 8.03223 9.28451 8.12848 9.17475 8.37165" fill="#FAE100"/>
<mask id="mask1_2022_76885" style="mask-type:luminance" maskUnits="userSpaceOnUse" x="7" y="8" width="6" height="6">
<path d="M9.87893 9.29704L10.5088 11.2711H9.19501L9.87893 9.29704ZM9.17306 8.37165C8.89443 8.98464 7.88798 11.8824 7.55363 12.6507C7.31215 13.2063 8.35406 13.6589 8.59554 13.1033L8.82182 12.3113H10.8938C10.8938 12.3113 10.8229 12.3434 11.0981 13.0695C11.3211 13.6572 12.3967 13.2502 12.1738 12.6626C11.8564 11.8233 10.7553 8.79888 10.5544 8.37165C10.4615 8.17407 10.1305 8.03223 9.80969 8.03223C9.54288 8.03223 9.28451 8.12848 9.17475 8.37165" fill="white"/>
</mask>
<g mask="url(#mask1_2022_76885)">
<path d="M12.3971 8.03223H7.3125V13.6606H12.3971V8.03223Z" fill="#FAE100"/>
</g>
<path d="M12.5681 8.55384C12.5698 9.53834 12.5732 12.713 12.5732 12.713C12.5732 12.713 12.482 13.3446 13.0224 13.3446C13.5627 13.3446 14.7634 13.3395 15.2953 13.3395C15.8272 13.3395 15.8239 12.2081 15.2919 12.2081C14.76 12.2081 13.789 12.2031 13.789 12.2031C13.789 12.2031 13.7941 9.26815 13.7924 8.55384C13.7924 8.20935 13.485 8.03711 13.1794 8.03711C12.8738 8.03711 12.5647 8.21104 12.5664 8.55722" fill="#FAE100"/>
<mask id="mask2_2022_76885" style="mask-type:luminance" maskUnits="userSpaceOnUse" x="12" y="8" width="4" height="6">
<path d="M12.5681 8.55384C12.5698 9.53834 12.5732 12.713 12.5732 12.713C12.5732 12.713 12.482 13.3446 13.0224 13.3446C13.5627 13.3446 14.7634 13.3395 15.2953 13.3395C15.8272 13.3395 15.8239 12.2081 15.2919 12.2081C14.76 12.2081 13.789 12.2031 13.789 12.2031C13.789 12.2031 13.7941 9.26815 13.7924 8.55384C13.7924 8.20935 13.485 8.03711 13.1794 8.03711C12.8738 8.03711 12.5647 8.21104 12.5664 8.55722" fill="white"/>
</mask>
<g mask="url(#mask2_2022_76885)">
<path d="M15.8296 8.03418H12.4844V13.3434H15.8296V8.03418Z" fill="#FAE100"/>
</g>
<path d="M15.9705 8.39653C15.9824 8.82883 15.957 12.733 15.957 13.0218C15.957 13.4777 17.1205 13.4777 17.1188 13.0218C17.1188 12.4916 17.1188 11.4851 17.1188 11.4851L17.4599 11.2115L18.9527 13.2481C19.255 13.6466 20.204 12.9272 19.9035 12.5287L18.3178 10.4415C18.3178 10.4415 19.3935 9.27802 19.8173 8.85585C20.0656 8.61099 19.2989 7.83758 19.0507 8.08413C18.8109 8.32223 17.1256 10.0092 17.1256 10.0092C17.1256 10.0092 17.1408 8.95042 17.1256 8.36445C17.1205 8.14154 16.847 8.03516 16.5683 8.03516C16.2694 8.03516 15.9638 8.15843 15.9705 8.39653Z" fill="#FAE100"/>
<mask id="mask3_2022_76885" style="mask-type:luminance" maskUnits="userSpaceOnUse" x="15" y="8" width="5" height="6">
<path d="M15.9705 8.39653C15.9824 8.82883 15.957 12.733 15.957 13.0218C15.957 13.4777 17.1205 13.4777 17.1188 13.0218C17.1188 12.4916 17.1188 11.4851 17.1188 11.4851L17.4599 11.2115L18.9527 13.2481C19.255 13.6466 20.204 12.9272 19.9035 12.5287L18.3178 10.4415C18.3178 10.4415 19.3935 9.27802 19.8173 8.85585C20.0656 8.61099 19.2989 7.83758 19.0507 8.08413C18.8109 8.32223 17.1256 10.0092 17.1256 10.0092C17.1256 10.0092 17.1408 8.95042 17.1256 8.36445C17.1205 8.14154 16.847 8.03516 16.5683 8.03516C16.2694 8.03516 15.9638 8.15843 15.9705 8.39653Z" fill="white"/>
</mask>
<g mask="url(#mask3_2022_76885)">
<path d="M20.2057 7.83887H15.957V13.6462H20.2057V7.83887Z" fill="#FAE100"/>
</g>
</g>
<defs>
<clipPath id="clip0_2022_76885">
<rect width="22" height="20.2117" fill="white" transform="translate(1.13281 2)"/>
</clipPath>
</defs>
</svg>
