<svg width="21" height="20" viewBox="0 0 21 20" fill="none" xmlns="http://www.w3.org/2000/svg">
<g clip-path="url(#clip0_616_77019)">
<path d="M10.4206 3.33301C6.73836 3.33301 3.75391 5.76543 3.75391 8.76768C3.75391 10.7193 5.01815 12.4323 6.91453 13.3904C6.77636 13.9281 6.41021 15.3349 6.33767 15.6376C6.24786 16.0115 6.47239 16.008 6.61746 15.9047C6.73145 15.8263 8.44475 14.6262 9.18396 14.1062C9.58465 14.1667 9.99916 14.1988 10.4206 14.1988C14.1028 14.1988 17.0872 11.7664 17.0872 8.76412C17.0872 5.76543 14.1028 3.33301 10.4206 3.33301Z" fill="#76767B"/>
<path d="M8.15425 7.24121H6.50195C6.34668 7.24121 6.2207 7.36718 6.2207 7.52245C6.2207 7.67772 6.34668 7.8037 6.50195 7.8037H7.04099V9.78411C7.04099 9.85735 7.07029 9.92766 7.12302 9.97747C7.17283 10.0273 7.24314 10.0566 7.31638 10.0566H7.3779C7.45114 10.0566 7.52145 10.0273 7.57125 9.97747C7.62399 9.92474 7.65328 9.85442 7.65328 9.78411V7.8037H8.16011C8.31538 7.8037 8.44135 7.67772 8.44135 7.52245C8.43549 7.36718 8.30952 7.24121 8.15425 7.24121Z" fill="white"/>
<path d="M12.1289 9.53217H11.3613V7.50781C11.3613 7.33789 11.2236 7.20312 11.0566 7.20312C10.8867 7.20312 10.752 7.34082 10.752 7.50781V9.68744C10.752 9.70502 10.7549 9.71966 10.7578 9.73724C10.7549 9.75189 10.752 9.76947 10.752 9.78704C10.752 9.92767 10.8662 10.0419 11.0068 10.0419H12.1318C12.2724 10.0419 12.3867 9.92767 12.3867 9.78704C12.3837 9.64642 12.2695 9.53217 12.1289 9.53217Z" fill="white"/>
<path d="M14.5878 9.62299L13.7295 8.49801L14.5029 7.7246C14.6083 7.61913 14.6083 7.44921 14.5029 7.34375C14.3974 7.23828 14.2275 7.23828 14.122 7.34375L13.164 8.30173V7.50781C13.164 7.33789 13.0264 7.20312 12.8594 7.20312C12.6894 7.20312 12.5547 7.34082 12.5547 7.50781V9.75482C12.5547 9.92474 12.6924 10.0595 12.8594 10.0595C13.0293 10.0595 13.164 9.92181 13.164 9.75482V9.0605L13.3369 8.88765L14.1484 9.9511C14.2392 10.0712 14.4091 10.0976 14.5292 10.0068C14.6523 9.91595 14.6787 9.74603 14.5878 9.62299Z" fill="white"/>
<path d="M10.5201 9.69623L9.69688 7.44042L9.69395 7.43749C9.64122 7.2998 9.48888 7.2002 9.30724 7.2002C9.1051 7.2002 8.94104 7.32324 8.90588 7.48437C8.90003 7.49609 8.89417 7.5078 8.89124 7.52245L8.07973 9.69623C8.02993 9.83978 8.1061 9.99505 8.24672 10.0448C8.39027 10.0947 8.54554 10.0185 8.59535 9.87786L8.73597 9.4765H9.86387L10.0045 9.87786C10.0543 10.0214 10.2096 10.0947 10.3531 10.0448C10.4967 9.99505 10.5699 9.83978 10.5201 9.69623ZM8.91467 8.96675L9.29259 7.88572C9.29552 7.88572 9.30138 7.88572 9.30431 7.88572L9.68223 8.96675H8.91467Z" fill="white"/>
</g>
<defs>
<clipPath id="clip0_616_77019">
<rect width="20" height="20" fill="white" transform="translate(0.421875)"/>
</clipPath>
</defs>
</svg>
