<svg width="88" height="88" viewBox="0 0 88 88" fill="none" xmlns="http://www.w3.org/2000/svg">
<path d="M26.64 36.28C28.098 36.28 29.28 35.098 29.28 33.64C29.28 32.182 28.098 31 26.64 31C25.182 31 24 32.182 24 33.64C24 35.098 25.182 36.28 26.64 36.28Z" fill="#9D9DA0"/>
<path d="M27.0801 44.7139C27.0801 44.7139 30.7467 50.2139 38.0801 50.2139C45.4134 50.2139 49.0801 44.7139 49.0801 44.7139" stroke="#9D9DA0" stroke-width="2.5" stroke-linecap="round" stroke-linejoin="round"/>
<path d="M49.5209 36.28C50.9789 36.28 52.1609 35.098 52.1609 33.64C52.1609 32.182 50.9789 31 49.5209 31C48.0628 31 46.8809 32.182 46.8809 33.64C46.8809 35.098 48.0628 36.28 49.5209 36.28Z" fill="#9D9DA0"/>
<circle cx="38" cy="39" r="31.25" stroke="#9D9DA0" stroke-width="2.5"/>
<path d="M59 64L74 79" stroke="#9D9DA0" stroke-width="2.5" stroke-linecap="round"/>
</svg>
