<svg width="120" height="120" viewBox="0 0 120 120" fill="none" xmlns="http://www.w3.org/2000/svg">
<path d="M39.5996 33.6C39.5996 31.6118 41.2114 30 43.1996 30H105.6C107.588 30 109.2 31.6118 109.2 33.6V106.8C109.2 108.788 107.588 110.4 105.6 110.4H43.1996C41.2114 110.4 39.5996 108.788 39.5996 106.8V33.6Z" fill="white"/>
<path fill-rule="evenodd" clip-rule="evenodd" d="M105.6 31.2H43.1996C41.8741 31.2 40.7996 32.2745 40.7996 33.6V106.8C40.7996 108.125 41.8741 109.2 43.1996 109.2H105.6C106.925 109.2 108 108.125 108 106.8V33.6C108 32.2745 106.925 31.2 105.6 31.2ZM43.1996 30C41.2114 30 39.5996 31.6118 39.5996 33.6V106.8C39.5996 108.788 41.2114 110.4 43.1996 110.4H105.6C107.588 110.4 109.2 108.788 109.2 106.8V33.6C109.2 31.6118 107.588 30 105.6 30H43.1996Z" fill="#1D1D1F"/>
<path d="M69.5996 97.1992H108V109.199H69.5996V97.1992Z" fill="#EEFAEB"/>
<path fill-rule="evenodd" clip-rule="evenodd" d="M105.6 32.4H43.1996C42.5369 32.4 41.9996 32.9373 41.9996 33.6V106.8C41.9996 107.463 42.5369 108 43.1996 108H105.6C106.262 108 106.8 107.463 106.8 106.8V33.6C106.8 32.9373 106.262 32.4 105.6 32.4ZM43.1996 30C41.2114 30 39.5996 31.6118 39.5996 33.6V106.8C39.5996 108.788 41.2114 110.4 43.1996 110.4H105.6C107.588 110.4 109.2 108.788 109.2 106.8V33.6C109.2 31.6118 107.588 30 105.6 30H43.1996Z" fill="#1D1D1F"/>
<path d="M7.19922 67.1996C7.19922 65.2114 8.81099 63.5996 10.7992 63.5996H68.3992C70.3874 63.5996 71.9992 65.2114 71.9992 67.1996V106.8C71.9992 108.788 70.3874 110.4 68.3992 110.4H10.7992C8.81099 110.4 7.19922 108.788 7.19922 106.8V67.1996Z" fill="white"/>
<path fill-rule="evenodd" clip-rule="evenodd" d="M68.3992 64.7996H10.7992C9.47373 64.7996 8.39922 65.8741 8.39922 67.1996V106.8C8.39922 108.125 9.47373 109.2 10.7992 109.2H68.3992C69.7247 109.2 70.7992 108.125 70.7992 106.8V67.1996C70.7992 65.8741 69.7247 64.7996 68.3992 64.7996ZM10.7992 63.5996C8.81099 63.5996 7.19922 65.2114 7.19922 67.1996V106.8C7.19922 108.788 8.81099 110.4 10.7992 110.4H68.3992C70.3874 110.4 71.9992 108.788 71.9992 106.8V67.1996C71.9992 65.2114 70.3874 63.5996 68.3992 63.5996H10.7992Z" fill="#1D1D1F"/>
<path d="M8.39844 74.3998C8.39844 72.4116 10.0102 70.7998 11.9984 70.7998H61.1984C63.1867 70.7998 64.7984 72.4116 64.7984 74.3998V106.8C64.7984 108.788 63.1867 110.4 61.1984 110.4H11.9984C10.0102 110.4 8.39844 108.788 8.39844 106.8V74.3998Z" fill="#EEFAEB"/>
<path fill-rule="evenodd" clip-rule="evenodd" d="M68.3992 65.9996H10.7992C10.1365 65.9996 9.59922 66.5369 9.59922 67.1996V106.8C9.59922 107.462 10.1365 108 10.7992 108H68.3992C69.062 108 69.5992 107.462 69.5992 106.8V67.1996C69.5992 66.5369 69.062 65.9996 68.3992 65.9996ZM10.7992 63.5996C8.81099 63.5996 7.19922 65.2114 7.19922 67.1996V106.8C7.19922 108.788 8.81099 110.4 10.7992 110.4H68.3992C70.3874 110.4 71.9992 108.788 71.9992 106.8V67.1996C71.9992 65.2114 70.3874 63.5996 68.3992 63.5996H10.7992Z" fill="#1D1D1F"/>
<path d="M63.6 41.9992C63.6 44.6502 61.451 46.7992 58.8 46.7992C56.149 46.7992 54 44.6502 54 41.9992C54 39.3483 56.149 37.1992 58.8 37.1992C61.451 37.1992 63.6 39.3483 63.6 41.9992Z" fill="#6FD154"/>
<path fill-rule="evenodd" clip-rule="evenodd" d="M58.8 44.3992C60.1255 44.3992 61.2 43.3247 61.2 41.9992C61.2 40.6737 60.1255 39.5992 58.8 39.5992C57.4745 39.5992 56.4 40.6737 56.4 41.9992C56.4 43.3247 57.4745 44.3992 58.8 44.3992ZM58.8 46.7992C61.451 46.7992 63.6 44.6502 63.6 41.9992C63.6 39.3483 61.451 37.1992 58.8 37.1992C56.149 37.1992 54 39.3483 54 41.9992C54 44.6502 56.149 46.7992 58.8 46.7992Z" fill="#1D1D1F"/>
<path d="M94.7992 41.9992C94.7992 44.6502 92.6502 46.7992 89.9992 46.7992C87.3483 46.7992 85.1992 44.6502 85.1992 41.9992C85.1992 39.3483 87.3483 37.1992 89.9992 37.1992C92.6502 37.1992 94.7992 39.3483 94.7992 41.9992Z" fill="#6FD154"/>
<path fill-rule="evenodd" clip-rule="evenodd" d="M89.9992 44.3992C91.3247 44.3992 92.3992 43.3247 92.3992 41.9992C92.3992 40.6737 91.3247 39.5992 89.9992 39.5992C88.6737 39.5992 87.5992 40.6737 87.5992 41.9992C87.5992 43.3247 88.6737 44.3992 89.9992 44.3992ZM89.9992 46.7992C92.6502 46.7992 94.7992 44.6502 94.7992 41.9992C94.7992 39.3483 92.6502 37.1992 89.9992 37.1992C87.3483 37.1992 85.1992 39.3483 85.1992 41.9992C85.1992 44.6502 87.3483 46.7992 89.9992 46.7992Z" fill="#1D1D1F"/>
<path fill-rule="evenodd" clip-rule="evenodd" d="M57.5996 26.3996C57.5996 17.1212 65.1212 9.59961 74.3996 9.59961C83.678 9.59961 91.1996 17.1212 91.1996 26.3996V38.3996H88.7996V26.3996C88.7996 18.4467 82.3525 11.9996 74.3996 11.9996C66.4467 11.9996 59.9996 18.4467 59.9996 26.3996V38.3996H57.5996V26.3996Z" fill="#1D1D1F"/>
<path fill-rule="evenodd" clip-rule="evenodd" d="M25.7988 76.4992C25.7988 84.0655 31.9325 90.1992 39.4988 90.1992C47.0651 90.1992 53.1988 84.0655 53.1988 76.4992V74.9992C53.1988 74.3365 52.6616 73.7992 51.9988 73.7992C51.3361 73.7992 50.7988 74.3365 50.7988 74.9992V76.4992C50.7988 82.74 45.7396 87.7992 39.4988 87.7992C33.258 87.7992 28.1988 82.74 28.1988 76.4992V74.9992C28.1988 74.3365 27.6616 73.7992 26.9988 73.7992C26.3361 73.7992 25.7988 74.3365 25.7988 74.9992V76.4992Z" fill="#1D1D1F"/>
<path fill-rule="evenodd" clip-rule="evenodd" d="M70.7988 92.9998C70.7988 92.3371 71.3361 91.7998 71.9988 91.7998H86.9988C87.6616 91.7998 88.1988 92.3371 88.1988 92.9998C88.1988 93.6625 87.6616 94.1998 86.9988 94.1998H71.9988C71.3361 94.1998 70.7988 93.6625 70.7988 92.9998Z" fill="#1D1D1F"/>
<path fill-rule="evenodd" clip-rule="evenodd" d="M93.7988 92.9998C93.7988 92.3371 94.3361 91.7998 94.9988 91.7998H106.999C107.662 91.7998 108.199 92.3371 108.199 92.9998C108.199 93.6625 107.662 94.1998 106.999 94.1998H94.9988C94.3361 94.1998 93.7988 93.6625 93.7988 92.9998Z" fill="#1D1D1F"/>
</svg>
