<svg width="41" height="40" viewBox="0 0 41 40" fill="none" xmlns="http://www.w3.org/2000/svg">
<rect x="0.710938" width="40" height="40" rx="20" fill="#E6F4F9"/>
<path d="M20.7109 19.6154C21.5629 19.6154 22.3958 19.3627 23.1042 18.8894C23.8126 18.4161 24.3647 17.7433 24.6907 16.9562C25.0168 16.169 25.1021 15.3029 24.9359 14.4673C24.7696 13.6317 24.3594 12.8641 23.7569 12.2617C23.1545 11.6593 22.3869 11.249 21.5513 11.0828C20.7157 10.9166 19.8496 11.0019 19.0625 11.3279C18.2753 11.6539 17.6026 12.2061 17.1292 12.9145C16.6559 13.6229 16.4032 14.4557 16.4032 15.3077C16.4032 16.4502 16.8571 17.5458 17.6649 18.3537C18.4728 19.1615 19.5685 19.6154 20.7109 19.6154ZM20.7109 20.8462C18.0409 20.8462 12.7109 22.4954 12.7109 25.7692V28.2308H28.7109V25.7692C28.7109 22.4954 23.3809 20.8462 20.7109 20.8462Z" fill="#1C96B5"/>
</svg>
